<svg xmlns="http://www.w3.org/2000/svg" xmlns:xlink="http://www.w3.org/1999/xlink" width="60" height="60" viewBox="0 0 60 60">
  <defs>
    <clipPath id="clip-Artboard_28">
      <rect width="60" height="60"/>
    </clipPath>
  </defs>
  <g id="Artboard_28" data-name="Artboard – 28" clip-path="url(#clip-Artboard_28)">
    <path id="Icon_awesome-robot" data-name="Icon awesome-robot" d="M0,20.691V31.036a2.584,2.584,0,0,0,2.586,2.586H5.173V18.1H2.586A2.584,2.584,0,0,0,0,20.691ZM37.5,7.759H28.45V2.586a2.586,2.586,0,0,0-5.173,0V7.759H14.225a6.464,6.464,0,0,0-6.466,6.466V36.209a5.178,5.178,0,0,0,5.173,5.173H38.8a5.178,5.178,0,0,0,5.173-5.173V14.225A6.464,6.464,0,0,0,37.5,7.759ZM20.691,33.623H15.518V31.036h5.173Zm-2.586-9.7a3.233,3.233,0,1,1,3.233-3.233A3.232,3.232,0,0,1,18.1,23.924Zm10.345,9.7H23.277V31.036H28.45Zm7.759,0H31.036V31.036h5.173Zm-2.586-9.7a3.233,3.233,0,1,1,3.233-3.233A3.232,3.232,0,0,1,33.623,23.924ZM49.141,18.1H46.555V33.623h2.586a2.584,2.584,0,0,0,2.586-2.586V20.691A2.584,2.584,0,0,0,49.141,18.1Z" transform="translate(4.636 9.309)" fill="#fff"/>
  </g>
</svg>
