<svg xmlns="http://www.w3.org/2000/svg" xmlns:xlink="http://www.w3.org/1999/xlink" width="60" height="60" viewBox="0 0 60 60">
  <defs>
    <clipPath id="clip-Artboard_29">
      <rect width="60" height="60"/>
    </clipPath>
  </defs>
  <g id="Artboard_29" data-name="Artboard – 29" clip-path="url(#clip-Artboard_29)">
    <path id="Icon_ionic-ios-sad" data-name="Icon ionic-ios-sad" d="M24.192,3.375A20.817,20.817,0,1,0,45.009,24.192,20.814,20.814,0,0,0,24.192,3.375ZM16.8,18.6a2.4,2.4,0,1,1-2.2,2.2A2.407,2.407,0,0,1,16.8,18.6Zm-.07,15.2a1.6,1.6,0,0,1-1.471-2.242,9.742,9.742,0,0,1,17.875,0A1.6,1.6,0,0,1,31.658,33.8a72.124,72.124,0,0,0-7.316-.4C20.489,33.4,16.726,33.8,16.726,33.8ZM31.588,23.381a2.4,2.4,0,1,1,2.2-2.2A2.407,2.407,0,0,1,31.588,23.381Z" transform="translate(5.808 5.808)" fill="#fff"/>
  </g>
</svg>
