<svg xmlns="http://www.w3.org/2000/svg" xmlns:xlink="http://www.w3.org/1999/xlink" width="60" height="60" viewBox="0 0 60 60">
  <defs>
    <clipPath id="clip-Artboard_31">
      <rect width="60" height="60"/>
    </clipPath>
  </defs>
  <g id="Artboard_31" data-name="Artboard – 31" clip-path="url(#clip-Artboard_31)">
    <path id="Icon_awesome-chart-bar" data-name="Icon awesome-chart-bar" d="M26.245,24.688h3.028a1.086,1.086,0,0,0,1.009-1.009V13.08a1.086,1.086,0,0,0-1.009-1.009H26.245a1.086,1.086,0,0,0-1.009,1.009v10.6a1.086,1.086,0,0,0,1.009,1.009Zm7.571,0h3.028a1.086,1.086,0,0,0,1.009-1.009V5.509A1.086,1.086,0,0,0,36.843,4.5H33.815a1.086,1.086,0,0,0-1.009,1.009V23.679A1.086,1.086,0,0,0,33.815,24.688Zm-22.712,0h3.028a1.086,1.086,0,0,0,1.009-1.009V18.127a1.086,1.086,0,0,0-1.009-1.009H11.1a1.086,1.086,0,0,0-1.009,1.009v5.552A1.086,1.086,0,0,0,11.1,24.688Zm7.571,0H21.7a1.086,1.086,0,0,0,1.009-1.009V8.033A1.086,1.086,0,0,0,21.7,7.024H18.674a1.086,1.086,0,0,0-1.009,1.009V23.679A1.086,1.086,0,0,0,18.674,24.688Zm20.441,5.047H5.047V5.762A1.261,1.261,0,0,0,3.785,4.5H1.262A1.261,1.261,0,0,0,0,5.762v26.5a2.524,2.524,0,0,0,2.524,2.524H39.115a1.261,1.261,0,0,0,1.262-1.262V31A1.261,1.261,0,0,0,39.115,29.735Z" transform="translate(9.812 10.359)" fill="#fff"/>
  </g>
</svg>
