<svg xmlns="http://www.w3.org/2000/svg" xmlns:xlink="http://www.w3.org/1999/xlink" width="639" height="610" viewBox="0 0 639 610">
  <defs>
    <clipPath id="clip-emptystate">
      <rect width="639" height="610"/>
    </clipPath>
  </defs>
  <g id="emptystate" clip-path="url(#clip-emptystate)">
    <g id="Group_197" data-name="Group 197" transform="translate(28.592 21.036)">
      <path id="Path_285" data-name="Path 285" d="M649.521,264.5H492.747a13.492,13.492,0,0,0-13.476,13.475V626.411l-1.8.548-38.459,11.778a7.193,7.193,0,0,1-8.974-4.77L315.642,260.29a7.19,7.19,0,0,1,4.77-8.975l59.265-18.147,171.813-52.59,59.265-18.147a7.177,7.177,0,0,1,8.975,4.761l29.242,95.514Z" transform="translate(-280.16 -136.779)" fill="#f2f2f2"/>
      <path id="Path_286" data-name="Path 286" d="M679.752,259.841,644.509,144.724a15.267,15.267,0,0,0-19.072-10.134l-83.324,25.5-171.8,52.6-83.324,25.514a15.286,15.286,0,0,0-10.134,19.072L397.305,650.7a15.3,15.3,0,0,0,14.608,10.807,15.086,15.086,0,0,0,4.465-.674L473.5,643.354l1.8-.557V640.92l-1.8.548-57.648,17.653a13.489,13.489,0,0,1-16.826-8.939L278.577,256.751a13.457,13.457,0,0,1,8.938-16.826l83.324-25.514,171.8-52.59,83.324-25.514a13.462,13.462,0,0,1,16.826,8.939l35.081,114.6.557,1.8H680.3Z" transform="translate(-276.182 -133.913)" fill="#3f3d56"/>
      <path id="Path_287" data-name="Path 287" d="M396.638,250.154a8.1,8.1,0,0,1-7.736-5.72l-11.571-37.8a8.084,8.084,0,0,1,5.364-10.1l158.058-48.389a8.093,8.093,0,0,1,10.1,5.364l11.571,37.8a8.1,8.1,0,0,1-5.364,10.1L399,249.8A8.064,8.064,0,0,1,396.638,250.154Z" transform="translate(-286.426 -135.324)" fill="#2467db"/>
      <circle id="Ellipse_72" data-name="Ellipse 72" cx="17.967" cy="17.967" r="17.967" transform="translate(152.861 4.452)" fill="#2467db"/>
      <circle id="Ellipse_73" data-name="Ellipse 73" cx="11.377" cy="11.377" r="11.377" transform="translate(159.451 11.041)" fill="#fff"/>
      <path id="Path_288" data-name="Path 288" d="M843.6,673.2H539.954a7.645,7.645,0,0,1-7.636-7.636V301.723a7.645,7.645,0,0,1,7.636-7.636H843.6a7.645,7.645,0,0,1,7.636,7.636V665.562A7.645,7.645,0,0,1,843.6,673.2Z" transform="translate(-302.214 -150.192)" fill="#f2f2f2"/>
      <path id="Path_289" data-name="Path 289" d="M700.2,274.087H511.09a15.294,15.294,0,0,0-15.272,15.272V655.714l1.8-.548V289.359a13.492,13.492,0,0,1,13.476-13.476H700.754Zm164.85,0H511.09a15.294,15.294,0,0,0-15.272,15.272V700.812a15.294,15.294,0,0,0,15.272,15.272H865.047a15.294,15.294,0,0,0,15.272-15.272V289.359A15.294,15.294,0,0,0,865.047,274.087Zm13.475,426.725a13.492,13.492,0,0,1-13.476,13.476H511.09a13.492,13.492,0,0,1-13.476-13.476V289.359a13.492,13.492,0,0,1,13.476-13.476H865.047a13.492,13.492,0,0,1,13.475,13.475Z" transform="translate(-298.504 -148.159)" fill="#3f3d56"/>
      <path id="Path_290" data-name="Path 290" d="M782.2,311.786H616.9a8.094,8.094,0,0,1-8.085-8.085V264.172a8.094,8.094,0,0,1,8.085-8.085H782.2a8.094,8.094,0,0,1,8.085,8.085V303.7a8.1,8.1,0,0,1-8.085,8.085Z" transform="translate(-309.988 -146.33)" fill="#2467db"/>
      <circle id="Ellipse_74" data-name="Ellipse 74" cx="17.967" cy="17.967" r="17.967" transform="translate(371.597 76.518)" fill="#2467db"/>
      <circle id="Ellipse_75" data-name="Ellipse 75" cx="10.944" cy="10.944" r="10.944" transform="translate(378.621 83.541)" fill="#fff"/>
    </g>
  </g>
</svg>
